<svg xmlns="http://www.w3.org/2000/svg" viewBox="0 0 1080 260" fill="none">
  <defs>
    <linearGradient id="topBar" x1="46" y1="38" x2="222" y2="104" gradientUnits="userSpaceOnUse">
      <stop stop-color="#A78BFA"/>
      <stop offset="1" stop-color="#772CE8"/>
    </linearGradient>
    <linearGradient id="bodyGrad" x1="46" y1="96" x2="236" y2="234" gradientUnits="userSpaceOnUse">
      <stop stop-color="#1B1B24"/>
      <stop offset="1" stop-color="#0F0F16"/>
    </linearGradient>
  </defs>

  <rect x="18" y="18" width="224" height="224" rx="58" fill="#0E0E10"/>
  <rect x="18" y="18" width="224" height="224" rx="58" stroke="#9147FF" stroke-opacity=".55" stroke-width="6"/>

  <rect x="52" y="44" width="156" height="54" rx="12" transform="rotate(-8 52 44)" fill="url(#topBar)" stroke="#DDD6FE" stroke-width="5"/>
  <path d="M70 70l30 30M106 62l30 30M142 54l30 30M178 46l24 24" stroke="#F4F4F5" stroke-width="6" stroke-linecap="round"/>

  <rect x="48" y="102" width="164" height="118" rx="20" fill="url(#bodyGrad)" stroke="#C4B5FD" stroke-width="6"/>
  <circle cx="88" cy="152" r="10" fill="#00B56A"/>
  <rect x="108" y="142" width="84" height="20" rx="10" fill="#27272A"/>
  <rect x="108" y="172" width="60" height="14" rx="7" fill="#3F3F46"/>

  <text x="278" y="118" fill="#EFEFF1" font-family="Segoe UI, Arial, sans-serif" font-size="78" font-weight="800" letter-spacing="-1.3">Clip-Reviewer</text>
  <text x="282" y="174" fill="#ADADB8" font-family="Segoe UI, Arial, sans-serif" font-size="30" font-weight="600">Find the clip. Frame the moment. Ship the short.</text>
</svg>

