<svg xmlns="http://www.w3.org/2000/svg" viewBox="0 0 512 512" fill="none">
  <defs>
    <linearGradient id="g2" x1="70" y1="56" x2="430" y2="462" gradientUnits="userSpaceOnUse">
      <stop stop-color="#a78bfa"/>
      <stop offset="1" stop-color="#772ce8"/>
    </linearGradient>
  </defs>

  <rect x="24" y="24" width="464" height="464" rx="124" fill="#0e0e10"/>
  <path d="M256 58l150 78v162l-150 156-150-156V136l150-78z" fill="#111115" stroke="url(#g2)" stroke-width="16"/>

  <path d="M192 176h82c40 0 64 22 64 56s-24 56-64 56h-82v-112z" fill="none" stroke="#efeff1" stroke-width="18" stroke-linejoin="round"/>
  <path d="M326 330c-18 22-40 34-70 34-52 0-90-36-90-88s38-88 90-88c30 0 52 10 70 30" fill="none" stroke="#c4b5fd" stroke-width="18" stroke-linecap="round"/>

  <path d="M232 238l66 34-66 34v-68z" fill="#00b56a"/>
</svg>

