<svg xmlns="http://www.w3.org/2000/svg" width="1280" height="720" viewBox="0 0 1280 720" fill="none">
  <defs>
    <linearGradient id="bg" x1="0" y1="0" x2="1280" y2="720" gradientUnits="userSpaceOnUse">
      <stop stop-color="#111827"/>
      <stop offset="1" stop-color="#1E1B4B"/>
    </linearGradient>
  </defs>
  <rect width="1280" height="720" fill="url(#bg)"/>
  <rect x="80" y="88" width="1120" height="544" rx="26" fill="#18181B" stroke="#3F3F46"/>
  <text x="124" y="146" fill="#E4E4E7" font-family="Segoe UI, Arial" font-size="34" font-weight="700">Admin + Streamer Management</text>
  <rect x="124" y="184" width="454" height="412" rx="16" fill="#27272A"/>
  <rect x="602" y="184" width="554" height="412" rx="16" fill="#27272A"/>
  <text x="148" y="228" fill="#A1A1AA" font-family="Segoe UI, Arial" font-size="24">Add / Remove streamers</text>
  <text x="624" y="228" fill="#A1A1AA" font-family="Segoe UI, Arial" font-size="24">Operational database view</text>
  <g fill="#3F3F46">
    <rect x="148" y="252" width="320" height="30" rx="8"/>
    <rect x="148" y="292" width="406" height="52" rx="10"/>
    <rect x="148" y="356" width="406" height="52" rx="10"/>
    <rect x="148" y="420" width="406" height="52" rx="10"/>
    <rect x="148" y="484" width="406" height="52" rx="10"/>
  </g>
  <rect x="470" y="252" width="84" height="30" rx="15" fill="#9147FF"/>
  <g fill="#3F3F46">
    <rect x="624" y="252" width="510" height="44" rx="8"/>
    <rect x="624" y="308" width="510" height="44" rx="8"/>
    <rect x="624" y="364" width="510" height="44" rx="8"/>
    <rect x="624" y="420" width="510" height="44" rx="8"/>
    <rect x="624" y="476" width="510" height="44" rx="8"/>
  </g>
  <rect x="1022" y="318" width="100" height="24" rx="12" fill="#00B56A"/>
  <rect x="1022" y="374" width="100" height="24" rx="12" fill="#EAB308"/>
  <rect x="1022" y="430" width="100" height="24" rx="12" fill="#EF4444"/>
  <text x="80" y="56" fill="#C4B5FD" font-family="Segoe UI, Arial" font-size="28" font-weight="700">Example Preview</text>
</svg>
