<svg xmlns="http://www.w3.org/2000/svg" width="1280" height="720" viewBox="0 0 1280 720" fill="none">
  <defs>
    <linearGradient id="bg" x1="0" y1="0" x2="1280" y2="720" gradientUnits="userSpaceOnUse">
      <stop stop-color="#111827"/>
      <stop offset="1" stop-color="#052E2B"/>
    </linearGradient>
  </defs>
  <rect width="1280" height="720" fill="url(#bg)"/>
  <rect x="80" y="88" width="1120" height="544" rx="26" fill="#18181B" stroke="#3F3F46"/>
  <text x="124" y="146" fill="#E4E4E7" font-family="Segoe UI, Arial" font-size="34" font-weight="700">Bulk Upload Queue</text>
  <rect x="124" y="184" width="1032" height="72" rx="14" fill="#27272A"/>
  <rect x="146" y="202" width="220" height="36" rx="18" fill="#10B981"/>
  <rect x="378" y="202" width="140" height="36" rx="18" fill="#3F3F46"/>
  <rect x="530" y="202" width="140" height="36" rx="18" fill="#3F3F46"/>
  <rect x="682" y="202" width="140" height="36" rx="18" fill="#3F3F46"/>
  <g fill="#27272A">
    <rect x="124" y="276" width="1032" height="72" rx="12"/>
    <rect x="124" y="364" width="1032" height="72" rx="12"/>
    <rect x="124" y="452" width="1032" height="72" rx="12"/>
  </g>
  <rect x="156" y="298" width="260" height="26" rx="8" fill="#3F3F46"/>
  <rect x="156" y="386" width="260" height="26" rx="8" fill="#3F3F46"/>
  <rect x="156" y="474" width="260" height="26" rx="8" fill="#3F3F46"/>
  <rect x="462" y="298" width="420" height="26" rx="13" fill="#1F2937"/>
  <rect x="462" y="298" width="330" height="26" rx="13" fill="#00B56A"/>
  <rect x="462" y="386" width="420" height="26" rx="13" fill="#1F2937"/>
  <rect x="462" y="386" width="210" height="26" rx="13" fill="#9147FF"/>
  <rect x="462" y="474" width="420" height="26" rx="13" fill="#1F2937"/>
  <rect x="462" y="474" width="388" height="26" rx="13" fill="#00B56A"/>
  <text x="80" y="56" fill="#C4B5FD" font-family="Segoe UI, Arial" font-size="28" font-weight="700">Example Preview</text>
</svg>
