<svg xmlns="http://www.w3.org/2000/svg" width="1280" height="720" viewBox="0 0 1280 720" fill="none">
  <defs>
    <linearGradient id="bg" x1="0" y1="0" x2="1280" y2="720" gradientUnits="userSpaceOnUse">
      <stop stop-color="#1A1240"/>
      <stop offset="1" stop-color="#0F172A"/>
    </linearGradient>
  </defs>
  <rect width="1280" height="720" fill="url(#bg)"/>
  <rect x="80" y="88" width="1120" height="544" rx="26" fill="#18181B" stroke="#3F3F46"/>
  <text x="124" y="148" fill="#E4E4E7" font-family="Segoe UI, Arial" font-size="34" font-weight="700">Clip Discovery Dashboard</text>
  <rect x="124" y="182" width="1032" height="58" rx="14" fill="#27272A"/>
  <rect x="144" y="198" width="170" height="26" rx="13" fill="#3F3F46"/>
  <rect x="334" y="198" width="170" height="26" rx="13" fill="#9147FF"/>
  <rect x="524" y="198" width="220" height="26" rx="13" fill="#3F3F46"/>
  <rect x="764" y="198" width="250" height="26" rx="13" fill="#3F3F46"/>
  <g>
    <rect x="124" y="264" width="320" height="152" rx="16" fill="#27272A"/>
    <rect x="124" y="432" width="320" height="152" rx="16" fill="#27272A"/>
    <rect x="460" y="264" width="320" height="152" rx="16" fill="#27272A"/>
    <rect x="460" y="432" width="320" height="152" rx="16" fill="#27272A"/>
    <rect x="796" y="264" width="360" height="320" rx="16" fill="#27272A"/>
  </g>
  <text x="150" y="328" fill="#A1A1AA" font-family="Segoe UI, Arial" font-size="24">Streamer group A</text>
  <text x="150" y="496" fill="#A1A1AA" font-family="Segoe UI, Arial" font-size="24">Streamer group B</text>
  <text x="486" y="328" fill="#A1A1AA" font-family="Segoe UI, Arial" font-size="24">Pending clips</text>
  <text x="486" y="496" fill="#A1A1AA" font-family="Segoe UI, Arial" font-size="24">Approved clips</text>
  <text x="824" y="328" fill="#A1A1AA" font-family="Segoe UI, Arial" font-size="24">Quick filters</text>
  <rect x="824" y="352" width="140" height="34" rx="17" fill="#00B56A"/>
  <rect x="974" y="352" width="140" height="34" rx="17" fill="#9147FF"/>
  <rect x="824" y="398" width="290" height="22" rx="11" fill="#3F3F46"/>
  <rect x="824" y="432" width="290" height="22" rx="11" fill="#3F3F46"/>
  <rect x="824" y="466" width="290" height="22" rx="11" fill="#3F3F46"/>
  <text x="80" y="56" fill="#C4B5FD" font-family="Segoe UI, Arial" font-size="28" font-weight="700">Example Preview</text>
</svg>
