<svg xmlns="http://www.w3.org/2000/svg" width="1280" height="720" viewBox="0 0 1280 720" fill="none">
  <defs>
    <linearGradient id="bg" x1="0" y1="0" x2="1280" y2="720" gradientUnits="userSpaceOnUse">
      <stop stop-color="#0F172A"/>
      <stop offset="1" stop-color="#111827"/>
    </linearGradient>
  </defs>
  <rect width="1280" height="720" fill="url(#bg)"/>
  <rect x="80" y="88" width="1120" height="544" rx="26" fill="#18181B" stroke="#3F3F46"/>
  <text x="124" y="146" fill="#E4E4E7" font-family="Segoe UI, Arial" font-size="34" font-weight="700">Upload Edit Studio</text>
  <rect x="124" y="178" width="742" height="418" rx="16" fill="#111827"/>
  <rect x="886" y="178" width="270" height="418" rx="16" fill="#27272A"/>
  <rect x="168" y="222" width="310" height="130" rx="10" fill="none" stroke="#00D4FF" stroke-width="5"/>
  <rect x="168" y="370" width="650" height="200" rx="10" fill="none" stroke="#F59E0B" stroke-width="5"/>
  <rect x="560" y="280" width="250" height="150" rx="10" fill="none" stroke="#22C55E" stroke-width="5"/>
  <text x="182" y="254" fill="#00D4FF" font-family="Segoe UI, Arial" font-size="22" font-weight="700">Camera Source</text>
  <text x="182" y="404" fill="#FCD34D" font-family="Segoe UI, Arial" font-size="22" font-weight="700">Gameplay Source</text>
  <text x="574" y="312" fill="#86EFAC" font-family="Segoe UI, Arial" font-size="22" font-weight="700">Third Area</text>
  <g fill="#3F3F46">
    <rect x="910" y="214" width="222" height="56" rx="10"/>
    <rect x="910" y="284" width="222" height="56" rx="10"/>
    <rect x="910" y="354" width="222" height="56" rx="10"/>
    <rect x="910" y="424" width="222" height="56" rx="10"/>
    <rect x="910" y="494" width="222" height="56" rx="10"/>
  </g>
  <text x="80" y="56" fill="#C4B5FD" font-family="Segoe UI, Arial" font-size="28" font-weight="700">Example Preview</text>
</svg>
